<svg width="256" height="256" viewBox="0 0 256 256" fill="none" xmlns="http://www.w3.org/2000/svg">
  <defs>
    <radialGradient id="halo" cx="0" cy="0" r="1" gradientUnits="userSpaceOnUse" gradientTransform="translate(128 112) rotate(90) scale(104 104)">
      <stop offset="0" stop-color="#8B5CF6" stop-opacity="0.38"/>
      <stop offset="0.55" stop-color="#38BDF8" stop-opacity="0.18"/>
      <stop offset="1" stop-color="#38BDF8" stop-opacity="0"/>
    </radialGradient>
    <linearGradient id="shell" x1="72" y1="38" x2="186" y2="210" gradientUnits="userSpaceOnUse">
      <stop stop-color="#F8FBFF"/>
      <stop offset="0.52" stop-color="#DBEAFE"/>
      <stop offset="1" stop-color="#BFDBFE"/>
    </linearGradient>
    <linearGradient id="visor" x1="90" y1="88" x2="166" y2="144" gradientUnits="userSpaceOnUse">
      <stop stop-color="#0F172A"/>
      <stop offset="0.5" stop-color="#1D4ED8"/>
      <stop offset="1" stop-color="#38BDF8"/>
    </linearGradient>
    <linearGradient id="core" x1="108" y1="152" x2="148" y2="192" gradientUnits="userSpaceOnUse">
      <stop stop-color="#7DD3FC"/>
      <stop offset="1" stop-color="#2563EB"/>
    </linearGradient>
    <filter id="softGlow" x="16" y="10" width="224" height="236" filterUnits="userSpaceOnUse" color-interpolation-filters="sRGB">
      <feDropShadow dx="0" dy="18" stdDeviation="18" flood-color="#0F172A" flood-opacity="0.22"/>
      <feDropShadow dx="0" dy="0" stdDeviation="10" flood-color="#60A5FA" flood-opacity="0.22"/>
    </filter>
  </defs>

  <circle cx="128" cy="120" r="102" fill="url(#halo)"/>

  <g filter="url(#softGlow)">
    <path d="M128 34C97.2 34 72 59.2 72 90v36c0 18.4 8.92 34.72 22.7 44.95V194c0 15.46 12.54 28 28 28h10.6c15.46 0 28-12.54 28-28v-23.05C175.08 160.72 184 144.4 184 126V90c0-30.8-25.2-56-56-56Z" fill="url(#shell)"/>
    <path d="M128 42c-26.48 0-48 21.52-48 48v35.7c0 14.75 7.07 27.84 18.01 36.09 2.41 1.82 3.83 4.69 3.83 7.71V194c0 11.05 8.95 20 20 20h12.32c11.05 0 20-8.95 20-20v-24.5c0-3.02 1.42-5.89 3.83-7.71C168.93 153.54 176 140.45 176 125.7V90c0-26.48-21.52-48-48-48Z" stroke="#FFFFFF" stroke-opacity="0.75" stroke-width="2"/>
    <rect x="92" y="80" width="72" height="46" rx="23" fill="url(#visor)"/>
    <rect x="104" y="94" width="14" height="14" rx="7" fill="#E0F2FE"/>
    <rect x="138" y="94" width="14" height="14" rx="7" fill="#E0F2FE"/>
    <path d="M112 138h32" stroke="#60A5FA" stroke-width="6" stroke-linecap="round"/>
    <path d="M122 24h12v16h-12z" fill="#E2E8F0"/>
    <circle cx="128" cy="20" r="8" fill="#A78BFA"/>
    <path d="M86 174c8.91-8.36 25.17-13.5 42-13.5s33.09 5.14 42 13.5V194c0 11.05-8.95 20-20 20h-44c-11.05 0-20-8.95-20-20v-20Z" fill="#E0F2FE"/>
    <rect x="112" y="156" width="32" height="32" rx="12" fill="url(#core)"/>
    <path d="M116 173.5h24" stroke="#E0F2FE" stroke-width="4" stroke-linecap="round"/>
    <path d="M92 176h-14" stroke="#93C5FD" stroke-width="8" stroke-linecap="round"/>
    <path d="M178 176h-14" stroke="#93C5FD" stroke-width="8" stroke-linecap="round"/>
  </g>
</svg>
